<?xml version="1.0" encoding="iso-8859-1"?>
<!-- Generator: Adobe Illustrator 29.3.1, SVG Export Plug-In . SVG Version: 9.03 Build 55982)  -->
<svg version="1.1" id="Vrstva_1" xmlns="http://www.w3.org/2000/svg" xmlns:xlink="http://www.w3.org/1999/xlink" x="0px" y="0px"
	 width="1000px" height="1000px" viewBox="0 0 1000 1000" enable-background="new 0 0 1000 1000" xml:space="preserve">
<g>
	<path d="M721.327,512.104c-7.28-0.793-7.224,10.609,0,11.396c19.316,2.103,17.286,28.763,11.039,41.108
		c-6.8,13.435-19.094,22.545-32.532,28.657c-27.957,12.716-61.273,16.8-91.57,19.035c-43.401,3.202-86.817,0.255-130.021-4.533
		c0.591-0.194,1.219-0.332,1.804-0.536c12.295-4.296,22.907-9.976,31.846-17.049c5.294-4.198,9.792-8.696,13.663-13.427
		c6.996-7.305,13.842-14.833,20.719-22.713c10.637-12.197,20.498-23.486,29.582-33.87l13.237-15.179
		c13.486-15.572,27.111-31.145,40.876-46.718c13.755-15.567,28.546-29.975,44.372-43.207c5.189,1.036,10.249,1.882,15.189,2.53
		c4.92,0.647,9.591,0.971,14.014,0.971c3.366,0,6.673-0.194,9.92-0.583c3.247-0.388,6.165-1.101,8.765-2.142
		c5.189-2.335,9.79-5.966,13.815-10.901c4.024-4.926,6.036-9.731,6.036-14.402c0-2.853-0.846-5.453-2.53-7.789
		c-1.693-2.335-4.472-4.278-8.367-5.836c-2.858-1.036-6.106-1.559-9.731-1.559c-7.53,0-15.767,2.335-24.721,7.007
		c-8.954,4.671-18.107,10.647-27.45,17.908c-4.154-1.036-8.496-2.201-13.038-3.501s-9.153-2.595-13.825-3.895
		c-14.273-4.412-29.064-8.496-44.372-12.266c-15.318-3.755-30.238-5.642-44.77-5.642c-10.379,0-20.049,1.364-29.004,4.088
		c-7.856,2.39-15.127,6.321-21.886,11.607c-6.124-1.127-12.508-2.113-19.385-2.829c-8.93-0.921-18.732-1.389-29.398-1.389
		c-24.83,0-46.928,2.319-66.291,6.958c-19.373,4.643-36.013,10.786-49.937,18.443c-13.915,7.657-25.106,16.128-33.573,25.4
		c-8.476,9.281-14.218,18.563-17.227,27.84c-2.324,6.731-3.481,13.225-3.481,19.489c0,11.133,3.534,19.72,10.612,25.747
		c7.078,6.036,16.061,9.05,26.967,9.05c9.517,0,19.836-2.439,30.973-7.309c11.138-4.87,22.266-12.406,33.404-22.618
		c11.138-10.207,21.34-23.312,30.626-39.32c0.694-1.157,1.042-2.203,1.042-3.134c0-1.852-0.694-3.303-2.092-4.349
		c-1.389-1.042-2.902-1.567-4.523-1.567c-2.324,0-4.06,1.046-5.217,3.134c-8.351,14.614-17.521,26.566-27.492,35.839
		c-9.971,9.281-19.72,16.128-29.228,20.53c-9.517,4.411-18.091,6.615-25.747,6.615c-7.888,0-14.325-1.914-19.311-5.742
		c-4.995-3.828-7.487-9.686-7.487-17.574c0-3.94,0.926-8.925,2.787-14.961c2.546-7.421,7.478-15.193,14.788-23.312
		c7.309-8.12,17.343-15.714,30.101-22.796c12.758-7.073,28.24-12.811,46.456-17.223c18.207-4.403,39.494-6.61,63.852-6.61
		c8.12,0,15.714,0.231,22.792,0.694c7.069,0.467,13.622,1.166,19.658,2.088c-9.74,9.281-19.658,20.241-29.754,32.883
		c-10.087,12.647-20.121,25.872-30.092,39.672c-9.98,13.804-19.72,27.372-29.237,40.709c-9.508,13.346-18.67,25.525-27.483,36.538
		c-8.823,11.022-17.174,20.009-25.053,26.967c-2.555-1.157-5.11-2.315-7.657-3.477c-2.555-1.157-4.995-2.319-7.309-3.481
		c-6.499-2.782-13.399-6.032-20.708-9.744c-7.3-3.708-14.556-6.263-21.741-7.652c-3.481-0.699-6.962-1.046-10.443-1.046
		c-10.675,0-19.079,3.25-25.231,9.744c-6.143,6.495-9.215,13.688-9.215,21.572c0,7.43,3.125,14.209,9.393,20.357
		c6.268,6.143,16.355,9.224,30.27,9.224c10.906,0,22.391-2.034,34.454-6.09c12.055-4.064,22.266-9.108,30.617-15.139
		c6.268,2.551,12.58,5.048,18.963,7.483c6.383,2.435,12.936,4.696,19.667,6.784c7.533,2.237,14.977,3.895,22.333,4.998
		c0.022,0.003,0.033,0.017,0.056,0.019c78.2,10.258,160.511,20.375,238.804,5.297c30.743-5.92,66.629-15.037,83.809-43.936
		C752.972,552.452,751.499,515.39,721.327,512.104z M689.142,403.779c1.554-1.3,4.213-3.118,7.978-5.453
		c3.755-2.336,7.788-4.537,12.071-6.619c4.273-2.072,8.107-3.113,11.484-3.113c3.626,0,5.966,1.166,7.002,3.506
		c0.518,0.523-0.07,2.077-1.753,4.671c-1.693,2.595-4.741,4.801-9.143,6.614c-3.376,1.559-7.789,2.335-13.237,2.335
		c-2.341,0-4.741-0.125-7.201-0.388c-2.47-0.254-5.129-0.643-7.988-1.165C688.614,404.167,688.873,404.038,689.142,403.779z
		 M316.846,598.012c-9.971,2.782-19.257,4.055-27.831,3.828c-8.591-0.467-14.85-2.497-18.794-6.09
		c-3.944-3.601-5.912-7.483-5.912-11.658c0-4.638,2.083-8.925,6.259-12.874c4.175-3.944,9.749-5.916,16.702-5.916
		c1.157,0,2.315,0.058,3.481,0.174c1.157,0.12,2.315,0.294,3.481,0.521c3.481,0.699,8.698,2.671,15.66,5.916
		c5.564,2.324,11.138,4.759,16.702,7.309c5.564,2.555,11.138,5.106,16.702,7.652C335.64,591.521,326.827,595.229,316.846,598.012z
		 M554.054,388.983c12.46,0,25.826,1.693,40.099,5.06c14.273,3.376,28.157,7.007,41.653,10.901
		c3.635,1.041,7.131,2.082,10.508,3.113c3.376,1.041,6.753,2.082,10.129,3.117c-10.647,9.343-20.836,19.144-30.568,29.392
		c-9.731,10.254-18.296,19.726-25.687,28.416c-7.401,8.7-13.048,15.249-16.932,19.662c-4.163,5.707-10.776,13.884-19.86,24.522
		c-7.087,8.308-15.099,17.175-23.606,26.344c-0.279-7.809-2.74-15.172-7.545-22.052c-5.101-7.309-13.221-13.279-24.359-17.922
		c19.257-4.874,34.276-12.642,45.067-23.317c10.781-10.666,16.177-21.799,16.177-33.404c0-9.277-3.65-18.095-10.96-26.446
		c-7.309-8.351-18.963-15.188-34.971-20.53c1.914-1.202,3.745-2.237,5.517-3.156c0.344-0.111,0.658-0.285,1.005-0.388
		C537.122,390.088,545.229,388.983,554.054,388.983z M382.791,590.182c-5.449-1.968-10.728-4.118-15.829-6.437
		c7.416-7.421,15.598-16.702,24.528-27.84c8.93-11.133,17.859-22.845,26.798-35.144c8.921-12.291,17.281-23.949,25.053-34.971
		c7.772-11.013,14.209-20.121,19.311-27.314c7.657-11.138,15.66-21.283,24.011-30.448c8.351-9.161,16.47-16.876,24.359-23.139
		c15.767,3.944,27.199,9.281,34.276,16.008c7.069,6.731,10.612,13.804,10.612,21.225c0,8.124-3.606,16.065-10.79,23.833
		c-7.194,7.777-16.996,14.093-29.406,18.968c-12.411,4.87-26.62,7.305-42.619,7.305c-5.11,0-10.327-0.347-15.66-1.042
		c-4.416,1.389-6.615,3.597-6.615,6.61c0,3.25,2.092,5.106,6.268,5.569c8.111,0.231,16.925,1.042,26.442,2.435
		c9.508,1.393,17.975,4.06,25.4,8.004c6.268,3.481,10.844,7.657,13.746,12.526c2.902,4.87,4.354,9.976,4.354,15.309
		c0,9.05-3.775,18.215-11.316,27.492c-7.541,9.281-17.913,16.996-31.143,23.139c-13.221,6.143-28.65,9.223-46.278,9.223
		c-6.036,0-12.348-0.467-18.963-1.393c-6.615-0.93-13.399-2.435-20.352-4.523C393.634,593.947,388.239,592.149,382.791,590.182z"/>
</g>
<g>
</g>
<g>
</g>
<g>
</g>
<g>
</g>
<g>
</g>
<g>
</g>
</svg>
